<?xml version="1.0" encoding="utf-8"?>
<!-- Generator: Adobe Illustrator 26.0.1, SVG Export Plug-In . SVG Version: 6.00 Build 0)  -->
<svg version="1.1" id="Layer_1" xmlns="http://www.w3.org/2000/svg" xmlns:xlink="http://www.w3.org/1999/xlink" x="0px" y="0px"
	 viewBox="0 0 1063.54 358.83" style="enable-background:new 0 0 1063.54 358.83;" xml:space="preserve">
<style type="text/css">
	.st0{fill:#FDBF50;}
	.st1{fill:#FF724C;}
	.st2{fill:#6D9773;}
</style>
<path class="st0" d="M142.49,283.94c-15.34,0-27.7-3.84-37.07-11.51c-9.38-7.67-14.06-17.84-14.06-30.5c0-6.94,1.76-13.54,5.3-19.81
	c3.53-6.27,8.28-10.93,14.24-13.97c-9.62-7.91-14.43-17.29-14.43-28.12c0-11.2,4.08-20.42,12.23-27.67
	c8.16-7.24,18.93-10.86,32.32-10.86c5.96,0,11.84,0.46,17.62,1.37c5.78,0.91,9.95,1.37,12.51,1.37c5.84,0,11.81-1.64,17.9-4.93
	c2.31-1.22,4.26-1.83,5.84-1.83c3.77,0,5.66,2.74,5.66,8.22c0,10.96-4.93,18.2-14.79,21.73c1.83,3.78,2.74,7.98,2.74,12.6
	c0,10.47-4.81,19.84-14.43,28.12c5.96,2.92,10.71,7.52,14.24,13.79c3.53,6.27,5.3,12.94,5.3,19.99c0,12.66-4.66,22.83-13.97,30.5
	C170.33,280.11,157.94,283.94,142.49,283.94z M142.49,260.21c6.21,0,11.47-1.86,15.8-5.57c4.32-3.71,6.48-8.25,6.48-13.6
	c0-5.72-2.04-10.35-6.12-13.88c-4.08-3.53-9.47-5.3-16.16-5.3c-6.7,0-12.08,1.77-16.16,5.3c-4.08,3.53-6.12,8.16-6.12,13.88
	c0,5.35,2.13,9.89,6.39,13.6C130.86,258.35,136.15,260.21,142.49,260.21z M129.79,193.83c3.47,3.35,7.7,5.02,12.69,5.02
	c4.99,0,9.22-1.67,12.69-5.02c3.47-3.35,5.2-7.4,5.2-12.14c0-5.11-1.64-9.25-4.93-12.42c-3.29-3.16-7.61-4.75-12.96-4.75
	c-5.36,0-9.68,1.58-12.97,4.75c-3.29,3.17-4.93,7.3-4.93,12.42C124.59,186.43,126.32,190.48,129.79,193.83z"/>
<path class="st0" d="M289.49,226.79c-9.86,9.5-22.22,14.24-37.07,14.24c-14.85,0-27.21-4.75-37.07-14.24
	c-9.86-9.49-14.79-21.48-14.79-35.97c0-14.61,4.93-26.63,14.79-36.06c9.86-9.43,22.22-14.15,37.07-14.15
	c14.85,0,27.21,4.72,37.07,14.15c9.86,9.43,14.79,21.46,14.79,36.06C304.28,205.3,299.35,217.29,289.49,226.79z M236.16,208.07
	c4.02,4.45,9.43,6.67,16.25,6.67c6.82,0,12.24-2.22,16.25-6.67c4.02-4.44,6.03-10.19,6.03-17.26c0-7.06-2.01-12.81-6.03-17.26
	c-4.02-4.44-9.44-6.66-16.25-6.66c-6.82,0-12.24,2.22-16.25,6.66c-4.02,4.45-6.03,10.2-6.03,17.26
	C230.14,197.88,232.15,203.63,236.16,208.07z"/>
<path class="st0" d="M399.6,226.79c-9.86,9.5-22.22,14.24-37.07,14.24c-14.85,0-27.21-4.75-37.07-14.24
	c-9.86-9.49-14.79-21.48-14.79-35.97c0-14.61,4.93-26.63,14.79-36.06c9.86-9.43,22.22-14.15,37.07-14.15
	c14.85,0,27.21,4.72,37.07,14.15c9.86,9.43,14.79,21.46,14.79,36.06C414.39,205.3,409.46,217.29,399.6,226.79z M346.28,208.07
	c4.02,4.45,9.43,6.67,16.25,6.67c6.82,0,12.24-2.22,16.25-6.67c4.02-4.44,6.03-10.19,6.03-17.26c0-7.06-2.01-12.81-6.03-17.26
	c-4.02-4.44-9.44-6.66-16.25-6.66c-6.82,0-12.24,2.22-16.25,6.66c-4.02,4.45-6.03,10.2-6.03,17.26
	C340.25,197.88,342.26,203.63,346.28,208.07z"/>
<path class="st0" d="M519.56,99.12c3.62,0,5.44,2.18,5.44,6.53v126.51c0,4.35-1.87,6.52-5.62,6.52c-2.54,0-5.38-1.06-8.52-3.17
	c-3.14-2.11-5.92-4.98-8.34-8.61c-3.26,3.87-7.86,7.1-13.77,9.7c-5.92,2.6-12.33,3.9-19.21,3.9c-14.14,0-25.68-4.68-34.62-14.05
	c-8.94-9.36-13.41-21.3-13.41-35.8c0-14.26,4.5-26.13,13.5-35.62c9-9.48,20.51-14.23,34.53-14.23c10.03,0,18.85,2.66,26.46,7.98
	v-13.41c0-10.75,2.45-19.48,7.34-26.19C508.23,102.48,513.64,99.12,519.56,99.12z M456.94,208.07c4.38,4.45,9.8,6.67,16.25,6.67
	c6.45,0,11.84-2.22,16.16-6.67c4.32-4.44,6.48-10.19,6.48-17.26c0-7.06-2.16-12.81-6.48-17.26c-4.32-4.44-9.71-6.66-16.16-6.66
	c-6.45,0-11.87,2.22-16.25,6.66c-4.38,4.45-6.57,10.2-6.57,17.26C450.37,197.88,452.56,203.63,456.94,208.07z"/>
<path class="st0" d="M609.06,100.72c1.95,0.85,3.27,1.92,3.94,3.2c0.67,1.28,1.01,3.26,1.01,5.94v11.46c0,3.08-1.54,4.62-4.62,4.62
	c-1.11,0-3.18-0.34-6.19-1.02c-3.02-0.68-5.95-1.02-8.78-1.02c-9.61,0-14.41,5.48-14.41,16.45V144h18.11c3.48,0,6,0.72,7.56,2.17
	c1.55,1.45,2.33,3.93,2.33,7.43v5.8c0,3.51-0.78,5.98-2.33,7.43c-1.56,1.45-4.08,2.17-7.56,2.17H580v58.31
	c0,3.41-0.73,5.88-2.18,7.4c-1.45,1.52-3.93,2.28-7.43,2.28h-9.79c-3.51,0-5.98-0.76-7.43-2.28c-1.45-1.52-2.17-3.99-2.17-7.4V169
	h-7.52c-3.34,0-5.76-0.72-7.25-2.17c-1.49-1.45-2.24-3.92-2.24-7.43v-5.8c0-3.5,0.74-5.98,2.24-7.43c1.49-1.45,3.91-2.17,7.25-2.17
	H551v-2.19c0-15.34,3.87-26.57,11.63-33.69c7.75-7.12,17.49-10.68,29.21-10.68C598.43,97.44,604.17,98.53,609.06,100.72z"/>
<path class="st0" d="M696.71,226.79c-9.86,9.5-22.22,14.24-37.07,14.24c-14.85,0-27.21-4.75-37.07-14.24
	c-9.86-9.49-14.79-21.48-14.79-35.97c0-14.61,4.93-26.63,14.79-36.06c9.86-9.43,22.22-14.15,37.07-14.15
	c14.85,0,27.21,4.72,37.07,14.15c9.86,9.43,14.79,21.46,14.79,36.06C711.5,205.3,706.57,217.29,696.71,226.79z M643.38,208.07
	c4.02,4.45,9.43,6.67,16.25,6.67c6.82,0,12.24-2.22,16.25-6.67c4.02-4.44,6.03-10.19,6.03-17.26c0-7.06-2.01-12.81-6.03-17.26
	c-4.02-4.44-9.44-6.66-16.25-6.66c-6.82,0-12.23,2.22-16.25,6.66c-4.02,4.45-6.03,10.2-6.03,17.26
	C637.36,197.88,639.37,203.63,643.38,208.07z"/>
<path class="st0" d="M806.82,226.79c-9.86,9.5-22.22,14.24-37.07,14.24c-14.85,0-27.21-4.75-37.07-14.24
	c-9.86-9.49-14.79-21.48-14.79-35.97c0-14.61,4.93-26.63,14.79-36.06c9.86-9.43,22.22-14.15,37.07-14.15
	c14.85,0,27.21,4.72,37.07,14.15c9.86,9.43,14.79,21.46,14.79,36.06C821.61,205.3,816.68,217.29,806.82,226.79z M753.5,208.07
	c4.02,4.45,9.43,6.67,16.25,6.67c6.82,0,12.24-2.22,16.25-6.67c4.02-4.44,6.03-10.19,6.03-17.26c0-7.06-2.01-12.81-6.03-17.26
	c-4.02-4.44-9.44-6.66-16.25-6.66c-6.82,0-12.23,2.22-16.25,6.66c-4.02,4.45-6.03,10.2-6.03,17.26
	C747.47,197.88,749.48,203.63,753.5,208.07z"/>
<path class="st0" d="M926.56,99.13c3.63,0,5.44,2.18,5.44,6.53v126.51c0,4.35-1.88,6.52-5.62,6.52c-2.54,0-5.38-1.06-8.52-3.17
	c-3.14-2.11-5.92-4.98-8.34-8.61c-3.26,3.87-7.86,7.1-13.78,9.7c-5.92,2.6-12.32,3.9-19.21,3.9c-14.14,0-25.68-4.68-34.62-14.05
	c-8.94-9.36-13.41-21.3-13.41-35.8c0-14.26,4.5-26.13,13.5-35.61c9-9.48,20.51-14.23,34.53-14.23c10.03,0,18.85,2.66,26.46,7.98
	v-13.41c0-10.75,2.45-19.48,7.34-26.19C915.23,102.48,920.64,99.13,926.56,99.13z M864.16,208.07c4.38,4.45,9.8,6.67,16.25,6.67
	c6.45,0,11.84-2.22,16.16-6.67c4.32-4.44,6.48-10.19,6.48-17.26c0-7.06-2.16-12.81-6.48-17.26c-4.32-4.44-9.71-6.66-16.16-6.66
	c-6.45,0-11.87,2.22-16.25,6.66c-4.38,4.45-6.58,10.2-6.58,17.26C857.58,197.88,859.78,203.63,864.16,208.07z"/>
<g>
	<path class="st1" d="M978.47,234.64c-3.17,3.04-7.06,4.57-11.69,4.57c-4.63,0-8.52-1.52-11.69-4.57c-3.17-3.04-4.75-6.88-4.75-11.5
		c0-4.63,1.58-8.46,4.75-11.51c3.16-3.04,7.06-4.56,11.69-4.56c4.63,0,8.52,1.52,11.69,4.56c3.16,3.04,4.75,6.88,4.75,11.51
		C983.22,227.76,981.64,231.6,978.47,234.64z"/>
	<path class="st2" d="M967.07,207.13c0.27-4.25,2.59-7.69,5.89-8.84c1.53-0.53,4.03-0.84,4.42,0
		C977.77,199.14,976.08,201.32,967.07,207.13z"/>
	<path class="st2" d="M961.18,198.29c-0.09,1.09-0.13,3.62,1.47,5.89c1.38,1.96,3.78,3.45,4.42,2.95c0.6-0.47-0.22-2.84-1.47-4.42
		c-0.38-0.47-0.64-0.68-1.47-1.47C962.82,200,961.82,198.97,961.18,198.29z"/>
</g>
</svg>
